# Blender v2.90.1 OBJ File: ''
# www.blender.org
mtllib mouse.mtl
o Plane
v -0.176153 -0.108331 -0.020857
v -0.176128 -0.108054 0.074801
v 0.080553 0.148040 0.073991
v -0.284999 0.257746 0.073773
v 0.080527 0.147763 -0.021667
v -0.285025 0.257470 -0.021885
v -0.005033 0.062399 -0.021397
v -0.090593 -0.022966 -0.021127
v -0.005007 0.062675 0.074261
v -0.090567 -0.022689 0.074531
v 0.180138 -0.123195 -0.020911
v 0.094578 -0.208560 -0.020641
v 0.180164 -0.122918 0.074747
v 0.094604 -0.208283 0.075017
vt 1.000000 1.000000
vt 0.666667 0.333333
vt 0.333333 0.666667
vt 0.666667 0.333333
vt 1.000000 0.000000
vt 1.000000 1.000000
vt 0.000000 1.000000
vt 1.000000 0.000000
vt 0.000000 1.000000
vt 0.333333 0.666667
vt 0.333333 0.666667
vt 0.666667 0.333333
vt 0.333333 0.666667
vt 0.666667 0.333333
vn 0.0003 0.0029 1.0000
vn -0.0003 -0.0029 -1.0000
vn 0.2874 0.9578 -0.0028
vn -0.9585 -0.2853 0.0011
vn 0.7063 -0.7079 0.0019
vn 0.7079 0.7063 -0.0022
vn -0.7079 -0.7063 0.0022
usemtl None
s off
f 4/1/1 10/2/1 9/3/1
f 8/4/2 1/5/2 6/6/2
f 4/1/3 5/7/3 6/6/3
f 4/1/4 1/5/4 2/8/4
f 10/2/5 1/5/5 8/4/5
f 9/3/5 5/7/5 3/9/5
f 9/3/6 11/10/6 7/11/6
f 14/12/5 11/10/5 13/13/5
f 8/4/7 14/12/7 10/2/7
f 10/2/1 13/13/1 9/3/1
f 7/11/2 12/14/2 8/4/2
f 9/3/1 3/9/1 4/1/1
f 4/1/1 2/8/1 10/2/1
f 6/6/2 5/7/2 7/11/2
f 7/11/2 8/4/2 6/6/2
f 4/1/3 3/9/3 5/7/3
f 4/1/4 6/6/4 1/5/4
f 10/2/5 2/8/5 1/5/5
f 9/3/5 7/11/5 5/7/5
f 9/3/6 13/13/6 11/10/6
f 14/12/5 12/14/5 11/10/5
f 8/4/7 12/14/7 14/12/7
f 10/2/1 14/12/1 13/13/1
f 7/11/2 11/10/2 12/14/2
